<?xml version="1.0" standalone="no"?>
<!DOCTYPE svg PUBLIC "-//W3C//DTD SVG 20010904//EN"
 "http://www.w3.org/TR/2001/REC-SVG-20010904/DTD/svg10.dtd">
<svg version="1.0" xmlns="http://www.w3.org/2000/svg"
 width="790.000000pt" height="790.000000pt" viewBox="0 0 790.000000 790.000000"
 preserveAspectRatio="xMidYMid meet">

<g transform="translate(0.000000,790.000000) scale(0.100000,-0.100000)"
fill="#000000" stroke="none">
<path d="M3690 7864 c-19 -2 -87 -9 -150 -15 -501 -47 -1059 -224 -1513 -480
-149 -84 -392 -250 -537 -365 -166 -133 -453 -418 -582 -579 -488 -609 -769
-1286 -860 -2070 -17 -145 -17 -665 0 -810 54 -471 173 -887 368 -1293 85
-179 147 -287 270 -472 147 -223 293 -400 494 -600 323 -324 673 -573 1072
-764 406 -195 822 -314 1293 -368 145 -17 665 -17 810 0 471 54 887 173 1293
368 179 85 287 147 472 270 223 147 400 293 600 494 324 323 573 673 764 1072
195 406 314 822 368 1293 17 145 17 665 0 810 -54 471 -173 887 -368 1293 -85
179 -147 287 -270 472 -147 223 -293 400 -494 600 -323 324 -673 573 -1072
764 -392 189 -794 306 -1238 361 -118 15 -637 29 -720 19z m675 -279 c1043
-124 1968 -671 2568 -1518 171 -241 350 -577 447 -840 156 -425 224 -811 224
-1277 0 -294 -14 -448 -65 -707 -179 -915 -709 -1736 -1472 -2276 -239 -170
-576 -349 -837 -446 -1137 -421 -2418 -254 -3394 443 -508 363 -889 811 -1166
1371 -152 308 -246 583 -309 908 -51 259 -65 413 -65 707 0 294 14 448 65 707
98 501 308 990 606 1410 498 703 1242 1215 2076 1428 213 54 397 83 697 109
95 8 501 -4 625 -19z"/>
<path d="M2151 5029 c-422 -49 -778 -329 -906 -713 -77 -230 -77 -508 -1 -732
116 -343 391 -592 753 -684 127 -33 288 -45 414 -31 254 27 454 123 614 293
42 44 72 85 68 89 -5 5 -82 59 -172 122 l-163 113 -57 -56 c-100 -97 -239
-150 -402 -150 -250 0 -468 134 -572 351 -59 123 -72 180 -72 319 1 137 17
209 76 329 70 142 213 262 369 312 91 29 252 36 349 15 92 -19 186 -63 237
-109 l39 -35 170 126 169 125 -81 77 c-195 185 -512 276 -832 239z"/>
<path d="M5771 5029 c-422 -49 -778 -329 -906 -713 -77 -230 -77 -508 -1 -732
116 -343 391 -592 753 -684 127 -33 288 -45 414 -31 254 27 454 123 614 293
42 44 72 85 68 89 -5 5 -82 59 -172 122 l-163 113 -57 -56 c-100 -97 -239
-150 -402 -150 -250 0 -468 134 -572 351 -59 123 -72 180 -72 319 1 137 17
209 76 329 70 142 213 262 369 312 91 29 252 36 349 15 92 -19 186 -63 237
-109 l39 -35 170 126 169 125 -81 77 c-195 185 -512 276 -832 239z"/>
<path d="M4020 4247 c0 -820 0 -820 -57 -895 -68 -90 -218 -97 -307 -14 -32
31 -65 96 -66 130 0 17 -5 22 -17 18 -10 -2 -102 -15 -205 -27 l-188 -23 0
-26 c1 -98 66 -250 146 -338 162 -180 433 -251 713 -186 211 48 346 189 413
429 22 79 23 88 26 883 l3 802 -231 0 -230 0 0 -753z"/>
<path d="M5790 4250 l0 -100 -105 0 -105 0 0 -95 0 -95 105 0 105 0 0 -205 0
-205 90 0 90 0 0 205 0 205 105 0 105 0 0 95 0 95 -105 0 -105 0 0 100 0 100
-90 0 -90 0 0 -100z"/>
<path d="M1440 2590 c0 -17 6 -20 50 -20 l50 0 0 -146 c0 -133 1 -145 18 -142
15 3 17 19 20 145 l3 142 47 3 c34 2 47 7 47 18 0 12 -21 16 -117 18 -113 3
-118 2 -118 -18z"/>
<path d="M1730 2445 c0 -140 2 -165 15 -165 12 0 15 15 15 75 l0 75 80 0 80 0
0 -75 c0 -68 2 -75 20 -75 19 0 20 7 20 165 0 158 -1 165 -20 165 -18 0 -20
-7 -20 -70 l0 -70 -80 0 -80 0 0 70 c0 56 -3 70 -15 70 -13 0 -15 -25 -15
-165z"/>
<path d="M2060 2445 l0 -165 85 0 c78 0 85 2 85 20 0 18 -7 20 -70 20 l-70 0
0 55 0 55 60 0 c53 0 60 2 60 20 0 18 -7 20 -60 20 l-60 0 0 50 0 50 70 0 c63
0 70 2 70 20 0 18 -7 20 -85 20 l-85 0 0 -165z"/>
<path d="M2430 2446 c0 -141 2 -166 15 -166 12 0 15 14 15 70 l0 70 34 0 c40
0 63 -24 90 -94 13 -33 23 -46 38 -46 15 0 18 4 13 21 -14 44 -45 107 -59 118
-12 10 -9 16 15 41 36 36 38 78 5 117 -21 24 -32 28 -95 31 l-71 4 0 -166z
m134 108 c41 -40 6 -94 -61 -94 l-43 0 0 55 0 55 44 0 c27 0 51 -6 60 -16z"/>
<path d="M2720 2445 c0 -140 2 -165 15 -165 13 0 15 25 15 165 0 140 -2 165
-15 165 -13 0 -15 -25 -15 -165z"/>
<path d="M2874 2596 c-34 -15 -44 -33 -44 -75 0 -32 27 -60 87 -90 55 -28 70
-54 48 -87 -19 -29 -69 -33 -116 -8 -30 15 -30 15 -27 -7 7 -50 119 -62 166
-19 55 52 36 110 -51 154 -61 31 -80 63 -57 91 14 17 72 20 101 5 16 -9 19 -7
19 9 0 25 -7 29 -56 36 -23 3 -51 0 -70 -9z"/>
<path d="M3090 2445 l0 -165 85 0 c78 0 85 2 85 20 0 18 -7 20 -70 20 l-70 0
0 55 0 55 60 0 c53 0 60 2 60 20 0 18 -7 20 -60 20 l-60 0 0 50 0 50 70 0 c63
0 70 2 70 20 0 18 -7 20 -85 20 l-85 0 0 -165z"/>
<path d="M3340 2446 c0 -140 2 -166 15 -166 12 0 15 25 17 141 l3 142 75 -137
c70 -127 95 -156 120 -141 6 4 10 69 10 166 0 147 -1 160 -17 157 -16 -3 -19
-20 -23 -131 l-5 -127 -71 127 c-60 109 -75 128 -97 131 l-27 3 0 -165z"/>
<path d="M3824 2596 c-34 -15 -44 -33 -44 -75 0 -32 27 -60 87 -90 55 -28 70
-54 48 -87 -19 -29 -69 -33 -116 -8 -30 15 -30 15 -27 -7 7 -50 119 -62 166
-19 55 52 36 110 -51 154 -61 31 -80 63 -57 91 14 17 72 20 101 5 16 -9 19 -7
19 9 0 25 -7 29 -56 36 -23 3 -51 0 -70 -9z"/>
<path d="M4100 2593 c-54 -28 -80 -75 -80 -145 0 -114 42 -163 139 -162 98 0
144 51 145 159 0 68 -17 109 -55 138 -38 28 -106 32 -149 10z m128 -43 c50
-47 49 -163 -3 -207 -36 -31 -95 -31 -131 0 -50 43 -44 175 10 212 30 22 98
19 124 -5z"/>
<path d="M4380 2446 c0 -140 2 -166 15 -166 12 0 15 25 17 141 l3 142 75 -137
c70 -127 95 -156 120 -141 6 4 10 69 10 166 0 147 -1 160 -17 157 -16 -3 -19
-20 -23 -131 l-5 -127 -71 127 c-60 109 -75 128 -97 131 l-27 3 0 -165z"/>
<path d="M4900 2593 c-54 -28 -80 -75 -80 -145 0 -114 42 -163 139 -162 98 0
144 51 145 159 0 68 -17 109 -55 138 -38 28 -106 32 -149 10z m128 -43 c50
-47 49 -163 -3 -207 -36 -31 -95 -31 -131 0 -50 43 -44 175 10 212 30 22 98
19 124 -5z"/>
<path d="M5190 2445 c0 -140 2 -165 15 -165 12 0 15 15 15 75 l0 74 63 3 c47
2 62 7 62 18 0 11 -15 16 -62 18 l-63 3 0 49 0 50 65 0 c58 0 65 2 65 20 0 18
-7 20 -80 20 l-80 0 0 -165z"/>
<path d="M5617 2596 c-48 -18 -62 -30 -81 -70 -36 -77 -13 -182 51 -223 32
-21 136 -24 171 -5 21 12 23 19 20 85 l-3 72 -60 0 c-47 0 -60 -3 -60 -15 0
-10 13 -16 43 -18 l42 -3 0 -44 c0 -48 -9 -55 -72 -55 -32 0 -47 7 -74 34 -31
31 -34 40 -34 91 0 51 3 60 34 91 28 28 42 34 75 34 23 0 57 -7 76 -14 33 -14
35 -14 35 4 0 39 -97 60 -163 36z"/>
<path d="M5930 2593 c-54 -28 -80 -75 -80 -145 0 -114 42 -163 139 -162 98 0
144 51 145 159 0 68 -17 109 -55 138 -38 28 -106 32 -149 10z m128 -43 c50
-47 49 -163 -3 -207 -36 -31 -95 -31 -131 0 -50 43 -44 175 10 212 30 22 98
19 124 -5z"/>
<path d="M6220 2444 l0 -167 74 5 c126 8 169 55 164 175 -3 64 -7 76 -33 103
-34 35 -79 50 -152 50 l-53 0 0 -166z m149 112 c34 -18 51 -54 51 -112 0 -51
-21 -98 -49 -114 -11 -5 -42 -10 -70 -10 l-51 0 0 125 0 125 45 0 c26 0 58 -6
74 -14z"/>
</g>
</svg>
